<?xml version="1.0" standalone="no"?>
<!DOCTYPE svg PUBLIC "-//W3C//DTD SVG 20010904//EN"
 "http://www.w3.org/TR/2001/REC-SVG-20010904/DTD/svg10.dtd">
<svg version="1.0" xmlns="http://www.w3.org/2000/svg"
 width="492.000000pt" height="492.000000pt" viewBox="0 0 492.000000 492.000000"
 preserveAspectRatio="xMidYMid meet">
<metadata>
Created by potrace 1.11, written by Peter Selinger 2001-2013
</metadata>
<g transform="translate(0.000000,492.000000) scale(0.100000,-0.100000)"
fill="#000000" stroke="none">
<path d="M2475 4910 c-178 -19 -229 -26 -374 -55 -198 -39 -485 -143 -671
-242 -74 -40 -256 -155 -300 -190 -339 -267 -562 -560 -720 -945 -61 -148
-107 -299 -135 -443 -3 -16 -8 -41 -10 -55 -3 -14 -8 -47 -11 -75 -3 -27 -7
-52 -9 -55 -18 -29 -27 -524 -12 -675 39 -407 165 -786 364 -1098 121 -189
290 -383 438 -502 27 -22 56 -47 65 -55 30 -29 246 -169 330 -213 156 -83 450
-195 580 -221 14 -3 55 -12 91 -20 36 -8 88 -18 115 -22 27 -3 52 -8 55 -10 3
-1 37 -6 75 -10 38 -3 92 -10 119 -14 51 -8 596 -5 650 3 17 3 65 8 108 12 43
3 86 8 95 10 9 1 42 6 72 9 30 4 66 8 80 11 14 2 68 11 120 20 52 9 124 23
160 31 36 9 76 18 90 20 14 3 48 12 76 20 28 8 60 16 70 18 94 19 401 136 582
222 l132 63 -2 1223 -3 1223 -910 0 -910 0 0 -475 0 -475 415 0 415 0 3 -381
2 -382 -47 -22 c-180 -85 -395 -155 -550 -180 -219 -35 -570 -33 -703 5 -8 2
-31 7 -50 10 -66 11 -209 64 -307 114 -137 69 -232 138 -348 255 -220 221
-349 493 -400 843 -14 98 -14 406 0 503 14 102 59 278 91 364 76 197 169 342
319 491 185 186 410 309 665 363 139 30 178 34 358 36 169 2 311 -11 442 -41
41 -9 77 -17 80 -18 35 -7 135 -48 215 -87 115 -56 247 -147 334 -231 56 -53
81 -68 81 -49 0 4 26 34 58 67 31 33 98 105 147 160 50 55 99 109 110 120 17
18 70 76 218 239 42 46 116 127 150 162 l29 32 -79 67 c-145 124 -362 255
-538 325 -111 44 -311 106 -405 124 -62 12 -138 26 -170 31 -19 3 -60 10 -90
15 -30 5 -89 12 -130 16 -41 3 -84 8 -95 11 -35 8 -547 10 -620 3z"/>
</g>
</svg>
